<svg data-v-fde0c5aa="" xmlns="http://www.w3.org/2000/svg" viewBox="0 0 300 300" class="iconLeft"><!----><defs data-v-fde0c5aa=""><!----></defs><rect data-v-fde0c5aa="" fill="#3E3E93" x="0" y="0" width="300px" height="300px" class="logo-background-square"></rect><defs data-v-fde0c5aa=""><!----></defs><g data-v-fde0c5aa="" id="8def8c01-994c-4565-a4a9-bb692cc1c9e5" fill="#FFFFFF" transform="matrix(3.4643819043222592,0,0,3.4643819043222592,106.7703835564038,116.0663781568791)"><path d="M8.53 4.07C8.53 4.10 8.53 4.13 8.51 4.16L5.64 15.58C5.64 15.60 5.63 15.61 5.63 15.62C5.60 15.74 5.49 15.82 5.38 15.82L3.57 15.82C3.44 15.82 3.35 15.74 3.32 15.61L0.43 4.16C0.43 4.14 0.42 4.14 0.42 4.13L0.42 4.07C0.42 3.91 0.55 3.78 0.69 3.78L2.38 3.78C2.51 3.78 2.60 3.86 2.65 3.99L2.65 4.02L4.47 11.30L6.30 4.02L6.30 3.99C6.34 3.86 6.44 3.78 6.57 3.78L8.25 3.78C8.40 3.78 8.53 3.91 8.53 4.07ZM14.17 5.95L14.17 13.61L16.00 13.61C16.20 13.61 16.35 13.73 16.35 13.89L16.35 15.53C16.35 15.68 16.20 15.81 16.00 15.81L10.07 15.81C9.91 15.81 9.79 15.68 9.79 15.53L9.79 13.89C9.79 13.73 9.91 13.61 10.07 13.61L11.97 13.61L11.97 5.95L10.07 5.95C9.91 5.95 9.79 5.84 9.79 5.68L9.79 4.05C9.79 3.89 9.91 3.77 10.07 3.77L16.00 3.77C16.20 3.77 16.35 3.89 16.35 4.05L16.35 5.68C16.35 5.84 16.20 5.95 16.00 5.95ZM26.24 15.89L20.22 9.32L20.22 15.53C20.22 15.68 20.10 15.81 19.95 15.81L18.31 15.81C18.16 15.81 18.03 15.68 18.03 15.53L18.03 3.70L24.05 10.26L24.05 4.06C24.05 3.91 24.18 3.78 24.32 3.78L25.97 3.78C26.11 3.78 26.24 3.91 26.24 4.06ZM36.12 15.53C36.12 15.68 36.01 15.81 35.85 15.81L33.85 15.81C33.77 15.81 33.70 15.78 33.64 15.71L33.63 15.68L30.24 10.92L30.24 15.53C30.24 15.68 30.13 15.81 29.97 15.81L28.34 15.81C28.18 15.81 28.06 15.68 28.06 15.53L28.06 8.69L29.34 8.69L28.08 4.20L28.06 4.09L28.06 4.06C28.06 3.91 28.18 3.78 28.34 3.78L30.04 3.78C30.16 3.78 30.27 3.86 30.30 3.98L31.40 7.92L33.61 3.93C33.67 3.84 33.75 3.78 33.87 3.78L35.73 3.78C35.88 3.78 36.01 3.91 36.01 4.06C36.01 4.10 35.99 4.14 35.98 4.19L35.95 4.23L32.54 10.37L36.05 15.33L36.09 15.37C36.11 15.41 36.12 15.47 36.12 15.53ZM42.04 5.95L42.04 13.61L43.88 13.61C44.07 13.61 44.23 13.73 44.23 13.89L44.23 15.53C44.23 15.68 44.07 15.81 43.88 15.81L37.94 15.81C37.79 15.81 37.66 15.68 37.66 15.53L37.66 13.89C37.66 13.73 37.79 13.61 37.94 13.61L39.84 13.61L39.84 5.95L37.94 5.95C37.79 5.95 37.66 5.84 37.66 5.68L37.66 4.05C37.66 3.89 37.79 3.77 37.94 3.77L43.88 3.77C44.07 3.77 44.23 3.89 44.23 4.05L44.23 5.68C44.23 5.84 44.07 5.95 43.88 5.95Z"></path></g><defs data-v-fde0c5aa=""><!----></defs><g data-v-fde0c5aa="" id="094693e9-93cc-45ae-a0f0-ba7a5fb00e0d" stroke="none" fill="#43D792" transform="matrix(0.634774988667095,0,0,0.634774988667095,-199.69100085146354,-38.946510396761894)"><switch><g><path d="M464.3 270.7v-.5c-.3-2-2-3-3.7-2.3-2 .9-3.9 1.8-5.9 2.6-3.4 1.4-6.7 2.9-10.2 4.3-2.2.9-4.4 2-6.6 2.9-3.3 1.4-6.6 2.8-10 4.2-1.7.7-3.4 1.6-5.1 2.2-2.5.9-5 1-7.6.6-2.5-.4-4.9-.9-7.2-2.4 1.7-.7 3.4-1.4 5-2.2 5-2.2 10.1-4.3 15-6.5 4.3-1.9 8.5-3.7 12.9-5.6.7-.3 1.3-.8 2.2-.4 1.4.7 2.8 1.3 4.4 1.9v-6.9c0-1.6-1.8-2.8-3.3-2.3-1.6.6-3.1 1.4-4.6 2-3.3 1.3-6.5 2.8-9.7 4.2-2.2.9-4.4 1.9-6.6 2.9-3.2 1.4-6.4 2.7-9.7 4.1-2.3 1-4.6 1.9-6.8 2.9-2.4 1.1-4.4 2.8-4.4 6.2.1 18.7 0 37.5 0 56.2 0 .7.1 1.3.4 2 .9 2.5 2.9 3.8 5.2 4.7 2.5 1 5 1.6 7.7 1.9 2.7.3 5.3.2 7.9-.6 3.8-1.2 7.3-3.1 11.1-4.6 2.8-1.2 5.6-2.5 8.3-3.7 3.8-1.6 7.6-3.2 11.5-4.9 2.7-1.2 5.4-2.4 8.1-3.5 1.2-.5 2-1.6 2-2.9-.3-18.6-.3-37.5-.3-56.5zm-20.8 54.2s-13.6-4.2-13.6-15.4 9.7-17.1 13.3-9.4c0 0 3.1-10.1 9.5-8.6 6.5 1.2 5.5 16.6-9.2 33.4z"></path><path d="M412.4 269.1c2.1-.9 4.2-1.9 6.3-2.8 3.8-1.6 7.6-3.2 11.6-4.9 2.8-1.2 5.7-2.5 8.5-3.7.6-.3.6-.5.5-1-.3-.9-.9-1.4-1.7-1.8h-1.2c-2.1.7-4.1 1.7-6.1 2.6-3.8 1.6-7.6 3.2-11.4 4.9-2.7 1.2-5.4 2.4-8.2 3.6-3.4 1.5-6.9 3-10.4 4.4-6 2.5-11.1 1.5-12.2 1.2-1.5-.4-3-.8-4.4-1.6-.2-.1-.4-.2-.4-.4 0-.3.3-.2.4-.2 1.8-.8 3.5-1.6 5.3-2.4 2.2-.9 4.3-1.9 6.5-2.8 3.7-1.5 7.3-3.2 11.1-4.7 3.3-1.4 6.5-2.9 9.8-4.3.7-.3 1.4-.4 2.2.1 1 .6 2.1 1 3.2 1.4.5.2 1 .2.9-.7-.2-2 .2-4-.2-6-.3-1.7-2-2.6-3.3-2.1-2.2.7-4.3 1.7-6.5 2.6-2.7 1.1-5.3 2.4-8 3.5-3.3 1.3-6.6 2.8-9.8 4.2-2.2 1-4.3 1.9-6.5 2.8-2.6 1.1-5.3 2.1-7.7 3.4-1.8 1-3.1 2.3-3.1 4.6v57.6c0 1.9.9 3.4 2.3 4.5 3.5 2.7 7.7 3.5 12.1 3.9 1.4.1 2.8-.2 4.2-.2 1.3-.1 1.4-.2 1.4-1.5V282c0-4 2-6.9 5.4-8.7 3-1.6 6.2-2.8 9.4-4.2z"></path></g></switch></g><!----></svg>