<svg data-v-fde0c5aa="" xmlns="http://www.w3.org/2000/svg" viewBox="0 0 300 300" class="icon"><!----><defs data-v-fde0c5aa=""><!----></defs><rect data-v-fde0c5aa="" fill="#3E3E93" x="0" y="0" width="300px" height="300px" class="logo-background-square"></rect><!----><defs data-v-fde0c5aa=""><!----></defs><g data-v-fde0c5aa="" id="ebc34002-0d36-454b-8790-7665d9b99253" fill="#43D792" stroke="none" transform="matrix(2.2045590803858137,0,0,2.2045590803858137,-778.339707650419,-506.20692787070186)"><switch><g><path d="M464.3 270.7v-.5c-.3-2-2-3-3.7-2.3-2 .9-3.9 1.8-5.9 2.6-3.4 1.4-6.7 2.9-10.2 4.3-2.2.9-4.4 2-6.6 2.9-3.3 1.4-6.6 2.8-10 4.2-1.7.7-3.4 1.6-5.1 2.2-2.5.9-5 1-7.6.6-2.5-.4-4.9-.9-7.2-2.4 1.7-.7 3.4-1.4 5-2.2 5-2.2 10.1-4.3 15-6.5 4.3-1.9 8.5-3.7 12.9-5.6.7-.3 1.3-.8 2.2-.4 1.4.7 2.8 1.3 4.4 1.9v-6.9c0-1.6-1.8-2.8-3.3-2.3-1.6.6-3.1 1.4-4.6 2-3.3 1.3-6.5 2.8-9.7 4.2-2.2.9-4.4 1.9-6.6 2.9-3.2 1.4-6.4 2.7-9.7 4.1-2.3 1-4.6 1.9-6.8 2.9-2.4 1.1-4.4 2.8-4.4 6.2.1 18.7 0 37.5 0 56.2 0 .7.1 1.3.4 2 .9 2.5 2.9 3.8 5.2 4.7 2.5 1 5 1.6 7.7 1.9 2.7.3 5.3.2 7.9-.6 3.8-1.2 7.3-3.1 11.1-4.6 2.8-1.2 5.6-2.5 8.3-3.7 3.8-1.6 7.6-3.2 11.5-4.9 2.7-1.2 5.4-2.4 8.1-3.5 1.2-.5 2-1.6 2-2.9-.3-18.6-.3-37.5-.3-56.5zm-20.8 54.2s-13.6-4.2-13.6-15.4 9.7-17.1 13.3-9.4c0 0 3.1-10.1 9.5-8.6 6.5 1.2 5.5 16.6-9.2 33.4z"></path><path d="M412.4 269.1c2.1-.9 4.2-1.9 6.3-2.8 3.8-1.6 7.6-3.2 11.6-4.9 2.8-1.2 5.7-2.5 8.5-3.7.6-.3.6-.5.5-1-.3-.9-.9-1.4-1.7-1.8h-1.2c-2.1.7-4.1 1.7-6.1 2.6-3.8 1.6-7.6 3.2-11.4 4.9-2.7 1.2-5.4 2.4-8.2 3.6-3.4 1.5-6.9 3-10.4 4.4-6 2.5-11.1 1.5-12.2 1.2-1.5-.4-3-.8-4.4-1.6-.2-.1-.4-.2-.4-.4 0-.3.3-.2.4-.2 1.8-.8 3.5-1.6 5.3-2.4 2.2-.9 4.3-1.9 6.5-2.8 3.7-1.5 7.3-3.2 11.1-4.7 3.3-1.4 6.5-2.9 9.8-4.3.7-.3 1.4-.4 2.2.1 1 .6 2.1 1 3.2 1.4.5.2 1 .2.9-.7-.2-2 .2-4-.2-6-.3-1.7-2-2.6-3.3-2.1-2.2.7-4.3 1.7-6.5 2.6-2.7 1.1-5.3 2.4-8 3.5-3.3 1.3-6.6 2.8-9.8 4.2-2.2 1-4.3 1.9-6.5 2.8-2.6 1.1-5.3 2.1-7.7 3.4-1.8 1-3.1 2.3-3.1 4.6v57.6c0 1.9.9 3.4 2.3 4.5 3.5 2.7 7.7 3.5 12.1 3.9 1.4.1 2.8-.2 4.2-.2 1.3-.1 1.4-.2 1.4-1.5V282c0-4 2-6.9 5.4-8.7 3-1.6 6.2-2.8 9.4-4.2z"></path></g></switch></g><!----></svg>